PathFileType	4	(X/Y/Z)	C:\Users\willi\Desktop\Data_PaperCallum_v2\17_Akif\Gait04\marker_experimental_temp.trc
DataRate	CameraRate	NumFrames	NumMarkers	Units	OrigDataRate	OrigDataStartFrame	OrigNumFrames
100.000000	100.000000	6	27	mm	100.000000	90	181
Frame#	Time	C7			T10			Clav			Sternum			Right_Back			PCL_CRAN			PCL_RECHTS			PCL_LINKS			RCL_UL_CRAN			RCL_UL_POST			RCL_UL_ANT			RCL_LL_CRAN			RCL_LL_POST			RCL_LL_ANT			Right_Heel			Right_Toe			Right_M5			LCL_UL_CRAN			LCL_UL_POST			LCL_UL_ANT			LCL_LL_CRAN			LCL_LL_POST			LCL_LL_ANT			Left_Heel			Left_Toe			Left_M5			*26			
		X1	Y1	Z1	X2	Y2	Z2	X3	Y3	Z3	X4	Y4	Z4	X5	Y5	Z5	X6	Y6	Z6	X7	Y7	Z7	X8	Y8	Z8	X9	Y9	Z9	X10	Y10	Z10	X11	Y11	Z11	X12	Y12	Z12	X13	Y13	Z13	X14	Y14	Z14	X15	Y15	Z15	X16	Y16	Z16	X17	Y17	Z17	X18	Y18	Z18	X19	Y19	Z19	X20	Y20	Z20	X21	Y21	Z21	X22	Y22	Z22	X23	Y23	Z23	X24	Y24	Z24	X25	Y25	Z25	X26	Y26	Z26	X27	Y27	Z27	

91	0.9	303.3181152343749	1413.372436523438	118.261474609375	323.4916076660156	1195.658569335938	122.0341873168945	158.1591796874999	1352.955444335938	145.2337036132813	88.42828369140619	1193.88623046875	172.1364440917969	314.8218383789062	1344.873291015625	3.596231937408428	309.9846801757812	1032.09130859375	121.9042739868164	316.8135986328124	973.0783081054688	96.88148498535155	322.6983337402343	971.9796142578125	147.2004852294922	191.3141479492187	732.3687744140625	-25.4175205230713	212.1398010253906	671.2249145507813	-18.8981113433838	161.8227386474609	674.3878173828125	-20.6735134124756	261.4336547851563	380.9194946289063	15.84839439392088	290.9105529785156	322.787353515625	12.86792373657225	240.6428070068359	318.7047729492188	22.21591949462889	350.3887329101563	40.57904052734377	107.3418197631836	150.0692291259766	31.85611724853517	113.0911331176758	194.0418548583984	10.02853298187257	52.7740020751953	180.0681915283203	767.1675415039063	326.53369140625	175.8209686279297	701.9574584960938	321.9847412109375	132.693115234375	722.7910766601563	335.6951599121094	171.2927398681641	422.594970703125	327.5560913085938	223.6327514648438	384.4871826171875	316.3459167480469	180.8321228027344	358.4796447753906	322.9211120605469	410.1786499023438	176.0148010253907	205.801528930664	253.79736328125	67.16281127929689	255.3898010253906	310.2977600097656	73.36361694335939	298.5086669921875	-88.04535675048852	726.4957885742188	-3209.583740234375	
92	0.91	289.6597290039061	1413.323486328125	118.1821212768555	310.3229064941406	1195.705078125	122.2558975219726	144.7514648437499	1352.714599609375	145.7491760253906	75.24518585205072	1193.462036132813	172.2741088867188	300.5660095214843	1345.109252929688	3.1012816429138	297.0917053222656	1032.005126953125	123.128677368164	304.1406555175781	972.926025390625	98.28795623779295	309.7177429199218	971.9581909179688	148.6239013671875	182.2032623291015	732.2102661132813	-24.69371795654298	203.84326171875	671.380859375	-18.01766204833986	153.4679107666015	673.892578125	-19.99914550781251	257.6524047851563	381.8396606445313	16.49969100952147	287.9485778808594	324.0330200195313	14.04568004608153	237.6516418457031	319.3388671875	22.74308395385741	350.0883483886719	42.07620620727541	108.2373809814453	149.9031829833984	31.77915573120118	113.0435028076172	194.1627349853516	10.19072151184083	52.90637588500975	162.7676391601562	768.1390991210938	327.1038818359375	157.0267791748047	703.0443725585938	322.6697998046875	114.1380081176758	724.7439575195313	335.6472473144531	146.2467956542969	421.2050476074219	326.8468322753906	196.2773590087891	380.2393188476563	316.25244140625	151.9733428955078	356.4406433105469	322.3656921386719	372.1744079589844	160.1132202148438	207.3270568847656	208.3616333007813	63.0120086669922	257.8167724609375	264.9761047363281	65.98231506347658	300.9357604980469	-88.04574584960962	726.4960327148438	-3209.5859375	
93	0.92	275.959503173828	1413.022583007813	118.1718444824219	297.1392822265624	1195.513549804688	122.6215667724609	131.2926177978515	1352.207641601563	146.3098449707031	62.02360153198236	1192.771484375	172.4432525634766	286.3072814941406	1345.08154296875	2.709348440170271	284.1904296874999	1031.662109375	124.5298461914062	291.4735107421874	972.536865234375	99.83031463623045	296.7048950195312	971.66064453125	150.1803588867187	173.057876586914	731.9421997070313	-24.01690673828126	195.4775848388672	671.4210815429688	-17.17095947265626	145.0585021972656	673.2911987304688	-19.35409545898439	253.5636291503906	382.6959838867188	17.16485023498534	284.6315002441406	325.2289428710938	15.18798828124998	234.3684997558593	319.9093627929688	23.2730197906494	349.7959899902344	43.59438323974612	109.1004791259765	149.7640075683594	31.71623611450196	113.0213775634765	194.30810546875	10.38064670562745	53.06641387939452	145.7536010742187	768.733642578125	327.542236328125	138.5670471191406	703.8163452148438	323.234130859375	95.89739990234372	726.313232421875	335.3704528808594	121.7566223144531	419.3329772949219	325.9443054199219	169.1721343994141	375.4784545898438	316.0927124023438	123.4141311645508	354.1149597167969	321.5361633300781	332.7101440429688	143.7682342529297	208.96630859375	162.2538452148438	59.15429687500001	260.170166015625	218.7594757080078	58.73548507690431	303.3117370605469	-88.04615020751977	726.4962158203125	-3209.58837890625	
94	0.93	262.2077331542968	1412.471557617188	118.2337036132812	283.9231567382812	1195.084838867188	123.1316680908203	117.7702026367187	1351.440551757813	146.9188537597656	48.7477951049804	1191.823364257813	172.6533508300781	272.0366210937499	1344.788696289063	2.42476296424864	271.2580871582031	1031.062744140625	126.096939086914	278.7865905761718	971.9129638671875	101.4953002929687	283.6353149414062	971.0864868164063	151.8568572998047	163.8598632812499	731.56884765625	-23.3912868499756	187.0278167724609	671.3484497070313	-16.36944770812989	136.5790557861328	672.5833740234375	-18.74533081054688	249.1858215332031	383.4799194335938	17.83079338073729	280.9888000488281	326.3732604980469	16.24489593505858	230.815933227539	320.4114379882813	23.79409217834471	349.5077514648438	45.13526153564455	109.8986206054687	149.6559906005859	31.66050720214845	113.0243530273437	194.4752044677734	10.58438110351564	53.24744033813475	129.0533447265625	768.91796875	327.8437194824219	120.5145111083984	704.231201171875	323.6493225097656	78.04066467285153	727.4409790039063	334.8675537109375	97.84115600585936	417.0144653320313	324.8602294921875	142.3564300537109	370.2998657226563	315.8427124023438	95.26052856445311	351.5924987792969	320.5054931640625	291.7252502441406	127.3188629150391	210.7046813964843	115.5195236206055	55.84646224975587	262.485595703125	171.6871643066407	51.87296295166016	305.6465148925781	-88.04656982421899	726.4964599609375	-3209.591064453125	
95	0.9400000000000001	248.3955993652343	1411.675170898438	118.370979309082	270.6567687988281	1194.421997070313	123.784309387207	104.1725540161132	1350.422973632813	147.579345703125	35.40216827392572	1190.629638671875	172.9133453369141	257.7455139160156	1344.233276367188	2.251406669616683	258.2710876464843	1030.211303710938	127.8156051635742	266.0532531738281	971.058837890625	103.2678298950195	270.4846801757812	970.2391967773438	153.6385345458984	154.5918731689453	731.0977172851563	-22.82086563110353	178.4811096191406	671.1698608398438	-15.62477111816407	128.0163269042968	671.7737426757813	-18.18357658386231	244.5399780273437	384.1889038085938	18.47961807250975	277.0686950683594	327.4678039550781	17.1840076446533	227.0234985351562	320.8450927734375	24.29333114624022	349.2164306640625	46.70798110961916	110.6015472412109	149.5826568603516	31.60565185546876	113.048713684082	194.6602325439453	10.78799629211427	53.43963623046874	112.6871566772461	768.6661376953125	328.0118103027344	102.9449691772461	704.2446899414063	323.8955993652344	60.63790130615232	728.0664672851563	334.1557922363281	74.51213073730467	414.2981872558594	323.6084289550781	115.8679733276367	364.8071594238281	315.4790649414063	67.61412048339842	348.9630737304688	319.3522644042969	249.2083587646484	111.1360778808594	212.5205993652343	68.24163055419923	53.35887527465821	264.7968444824219	123.834342956543	45.66601943969727	307.9493103027344	-88.04699707031274	726.4967041015625	-3209.59375	
96	0.9500000000000001	234.515151977539	1410.6416015625	118.5871276855469	257.3223571777343	1193.53076171875	124.5752563476562	90.48890686035149	1349.16748046875	148.2942962646484	21.9713287353515	1189.205810546875	173.2312469482422	243.4261322021484	1343.421508789063	2.192658901214585	245.2052917480468	1029.114990234375	129.6683807373047	253.2462158203124	969.9816284179688	105.1314010620117	257.2290649414062	969.1267700195313	155.509048461914	145.2368164062499	730.5390625	-22.30935096740724	169.8258819580078	670.8963012695313	-14.94829177856446	119.3584823608398	670.8716430664063	-17.68194198608399	239.6466064453125	384.8258666992188	19.08997535705565	272.9266052246094	328.5188903808594	17.98807334899901	223.0221405029297	321.2149658203125	24.75604438781737	348.9120788574219	48.32884597778322	111.1824645996093	149.546142578125	31.54679489135743	113.0880966186523	194.8580474853516	10.97922134399415	53.63122177124022	96.66466522216794	767.9613037109375	328.0585021972656	85.92942810058591	703.8138427734375	323.9673461914063	43.75180816650388	728.131103515625	333.2679748535156	51.77191543579101	411.2432861328125	322.20556640625	89.73976135253905	359.1090087890625	314.9833984375	40.56241226196289	346.3132629394531	318.1505737304688	205.2191467285156	95.60690307617189	214.3831634521484	20.55558013916017	51.95895004272461	267.1296081542969	75.32813262939455	40.3954200744629	310.2242126464844	-88.04743194580102	726.4970092773438	-3209.5966796875	
